<mxfile host="app.diagrams.net" modified="2024-05-15T11:40:35.240Z" agent="Mozilla/5.0 (Windows NT 10.0; Win64; x64) AppleWebKit/537.36 (KHTML, like Gecko) Chrome/124.0.0.0 Safari/537.36" etag="1bS09AqPwTYX1Ayh7J0v" version="24.4.0" type="github">
  <diagram id="R2lEEEUBdFMjLlhIrx00" name="Page-1">
    <mxGraphModel dx="756" dy="829" grid="1" gridSize="10" guides="1" tooltips="1" connect="1" arrows="1" fold="1" page="1" pageScale="1" pageWidth="850" pageHeight="1100" math="0" shadow="0" extFonts="Permanent Marker^https://fonts.googleapis.com/css?family=Permanent+Marker">
      <root>
        <mxCell id="0" />
        <mxCell id="1" parent="0" />
        <mxCell id="C-vyLk0tnHw3VtMMgP7b-23" value="Users" style="shape=table;startSize=30;container=1;collapsible=1;childLayout=tableLayout;fixedRows=1;rowLines=0;fontStyle=1;align=center;resizeLast=1;" parent="1" vertex="1">
          <mxGeometry x="111" y="150" width="250" height="360" as="geometry" />
        </mxCell>
        <mxCell id="C-vyLk0tnHw3VtMMgP7b-24" value="" style="shape=partialRectangle;collapsible=0;dropTarget=0;pointerEvents=0;fillColor=none;points=[[0,0.5],[1,0.5]];portConstraint=eastwest;top=0;left=0;right=0;bottom=1;" parent="C-vyLk0tnHw3VtMMgP7b-23" vertex="1">
          <mxGeometry y="30" width="250" height="110" as="geometry" />
        </mxCell>
        <mxCell id="C-vyLk0tnHw3VtMMgP7b-25" value="PK" style="shape=partialRectangle;overflow=hidden;connectable=0;fillColor=none;top=0;left=0;bottom=0;right=0;fontStyle=1;" parent="C-vyLk0tnHw3VtMMgP7b-24" vertex="1">
          <mxGeometry width="43" height="110" as="geometry">
            <mxRectangle width="43" height="110" as="alternateBounds" />
          </mxGeometry>
        </mxCell>
        <mxCell id="C-vyLk0tnHw3VtMMgP7b-26" value="id text(20) NOT NULL " style="shape=partialRectangle;overflow=hidden;connectable=0;fillColor=none;top=0;left=0;bottom=0;right=0;align=left;spacingLeft=6;fontStyle=1;" parent="C-vyLk0tnHw3VtMMgP7b-24" vertex="1">
          <mxGeometry x="43" width="207" height="110" as="geometry">
            <mxRectangle width="207" height="110" as="alternateBounds" />
          </mxGeometry>
        </mxCell>
        <mxCell id="C-vyLk0tnHw3VtMMgP7b-27" value="" style="shape=partialRectangle;collapsible=0;dropTarget=0;pointerEvents=0;fillColor=none;points=[[0,0.5],[1,0.5]];portConstraint=eastwest;top=0;left=0;right=0;bottom=0;dashed=1;" parent="C-vyLk0tnHw3VtMMgP7b-23" vertex="1">
          <mxGeometry y="140" width="250" height="110" as="geometry" />
        </mxCell>
        <mxCell id="C-vyLk0tnHw3VtMMgP7b-28" value="AK,FK" style="shape=partialRectangle;overflow=hidden;connectable=0;fillColor=none;top=0;left=0;bottom=0;right=0;fontStyle=1" parent="C-vyLk0tnHw3VtMMgP7b-27" vertex="1">
          <mxGeometry width="43" height="110" as="geometry">
            <mxRectangle width="43" height="110" as="alternateBounds" />
          </mxGeometry>
        </mxCell>
        <mxCell id="C-vyLk0tnHw3VtMMgP7b-29" value="name text(20) NOT NULL" style="shape=partialRectangle;overflow=hidden;connectable=0;fillColor=none;top=0;left=0;bottom=0;right=0;align=left;spacingLeft=6;fontStyle=1" parent="C-vyLk0tnHw3VtMMgP7b-27" vertex="1">
          <mxGeometry x="43" width="207" height="110" as="geometry">
            <mxRectangle width="207" height="110" as="alternateBounds" />
          </mxGeometry>
        </mxCell>
        <mxCell id="UPcJB4WVgScmo6bHeXyi-15" style="shape=partialRectangle;collapsible=0;dropTarget=0;pointerEvents=0;fillColor=none;points=[[0,0.5],[1,0.5]];portConstraint=eastwest;top=0;left=0;right=0;bottom=1;" vertex="1" parent="C-vyLk0tnHw3VtMMgP7b-23">
          <mxGeometry y="250" width="250" height="110" as="geometry" />
        </mxCell>
        <mxCell id="UPcJB4WVgScmo6bHeXyi-16" style="shape=partialRectangle;overflow=hidden;connectable=0;fillColor=none;top=0;left=0;bottom=0;right=0;fontStyle=1;" vertex="1" parent="UPcJB4WVgScmo6bHeXyi-15">
          <mxGeometry width="43" height="110" as="geometry">
            <mxRectangle width="43" height="110" as="alternateBounds" />
          </mxGeometry>
        </mxCell>
        <mxCell id="UPcJB4WVgScmo6bHeXyi-17" value="pw text(20) NOT NULL" style="shape=partialRectangle;overflow=hidden;connectable=0;fillColor=none;top=0;left=0;bottom=0;right=0;align=left;spacingLeft=6;fontStyle=1;" vertex="1" parent="UPcJB4WVgScmo6bHeXyi-15">
          <mxGeometry x="43" width="207" height="110" as="geometry">
            <mxRectangle width="207" height="110" as="alternateBounds" />
          </mxGeometry>
        </mxCell>
        <mxCell id="UPcJB4WVgScmo6bHeXyi-27" value="Refrigerators" style="shape=table;startSize=30;container=1;collapsible=1;childLayout=tableLayout;fixedRows=1;rowLines=0;fontStyle=1;align=center;resizeLast=1;" vertex="1" parent="1">
          <mxGeometry x="580" y="150" width="250" height="360" as="geometry" />
        </mxCell>
        <mxCell id="UPcJB4WVgScmo6bHeXyi-28" value="" style="shape=partialRectangle;collapsible=0;dropTarget=0;pointerEvents=0;fillColor=none;points=[[0,0.5],[1,0.5]];portConstraint=eastwest;top=0;left=0;right=0;bottom=1;" vertex="1" parent="UPcJB4WVgScmo6bHeXyi-27">
          <mxGeometry y="30" width="250" height="110" as="geometry" />
        </mxCell>
        <mxCell id="UPcJB4WVgScmo6bHeXyi-29" value="PK" style="shape=partialRectangle;overflow=hidden;connectable=0;fillColor=none;top=0;left=0;bottom=0;right=0;fontStyle=1;" vertex="1" parent="UPcJB4WVgScmo6bHeXyi-28">
          <mxGeometry width="50" height="110" as="geometry">
            <mxRectangle width="50" height="110" as="alternateBounds" />
          </mxGeometry>
        </mxCell>
        <mxCell id="UPcJB4WVgScmo6bHeXyi-30" value="name text(20) NOT NULL " style="shape=partialRectangle;overflow=hidden;connectable=0;fillColor=none;top=0;left=0;bottom=0;right=0;align=left;spacingLeft=6;fontStyle=1;" vertex="1" parent="UPcJB4WVgScmo6bHeXyi-28">
          <mxGeometry x="50" width="200" height="110" as="geometry">
            <mxRectangle width="200" height="110" as="alternateBounds" />
          </mxGeometry>
        </mxCell>
        <mxCell id="UPcJB4WVgScmo6bHeXyi-31" value="" style="shape=partialRectangle;collapsible=0;dropTarget=0;pointerEvents=0;fillColor=none;points=[[0,0.5],[1,0.5]];portConstraint=eastwest;top=0;left=0;right=0;bottom=0;dashed=1;" vertex="1" parent="UPcJB4WVgScmo6bHeXyi-27">
          <mxGeometry y="140" width="250" height="110" as="geometry" />
        </mxCell>
        <mxCell id="UPcJB4WVgScmo6bHeXyi-32" value="AK" style="shape=partialRectangle;overflow=hidden;connectable=0;fillColor=none;top=0;left=0;bottom=0;right=0;fontStyle=1" vertex="1" parent="UPcJB4WVgScmo6bHeXyi-31">
          <mxGeometry width="50" height="110" as="geometry">
            <mxRectangle width="50" height="110" as="alternateBounds" />
          </mxGeometry>
        </mxCell>
        <mxCell id="UPcJB4WVgScmo6bHeXyi-33" value="name text(20) NOT NULL" style="shape=partialRectangle;overflow=hidden;connectable=0;fillColor=none;top=0;left=0;bottom=0;right=0;align=left;spacingLeft=6;fontStyle=1" vertex="1" parent="UPcJB4WVgScmo6bHeXyi-31">
          <mxGeometry x="50" width="200" height="110" as="geometry">
            <mxRectangle width="200" height="110" as="alternateBounds" />
          </mxGeometry>
        </mxCell>
        <mxCell id="UPcJB4WVgScmo6bHeXyi-34" style="shape=partialRectangle;collapsible=0;dropTarget=0;pointerEvents=0;fillColor=none;points=[[0,0.5],[1,0.5]];portConstraint=eastwest;top=0;left=0;right=0;bottom=1;" vertex="1" parent="UPcJB4WVgScmo6bHeXyi-27">
          <mxGeometry y="250" width="250" height="110" as="geometry" />
        </mxCell>
        <mxCell id="UPcJB4WVgScmo6bHeXyi-35" style="shape=partialRectangle;overflow=hidden;connectable=0;fillColor=none;top=0;left=0;bottom=0;right=0;fontStyle=1;" vertex="1" parent="UPcJB4WVgScmo6bHeXyi-34">
          <mxGeometry width="50" height="110" as="geometry">
            <mxRectangle width="50" height="110" as="alternateBounds" />
          </mxGeometry>
        </mxCell>
        <mxCell id="UPcJB4WVgScmo6bHeXyi-36" value="pw text(20) NOT NULL" style="shape=partialRectangle;overflow=hidden;connectable=0;fillColor=none;top=0;left=0;bottom=0;right=0;align=left;spacingLeft=6;fontStyle=1;" vertex="1" parent="UPcJB4WVgScmo6bHeXyi-34">
          <mxGeometry x="50" width="200" height="110" as="geometry">
            <mxRectangle width="200" height="110" as="alternateBounds" />
          </mxGeometry>
        </mxCell>
        <mxCell id="UPcJB4WVgScmo6bHeXyi-38" value="" style="endArrow=classic;html=1;rounded=0;fontSize=12;startSize=8;endSize=8;curved=1;entryX=1;entryY=0.5;entryDx=0;entryDy=0;exitX=0;exitY=0.5;exitDx=0;exitDy=0;" edge="1" parent="1" source="UPcJB4WVgScmo6bHeXyi-39" target="C-vyLk0tnHw3VtMMgP7b-27">
          <mxGeometry width="50" height="50" relative="1" as="geometry">
            <mxPoint x="460" y="370" as="sourcePoint" />
            <mxPoint x="510" y="320" as="targetPoint" />
          </mxGeometry>
        </mxCell>
        <mxCell id="UPcJB4WVgScmo6bHeXyi-39" value="manage" style="rhombus;whiteSpace=wrap;html=1;" vertex="1" parent="1">
          <mxGeometry x="430" y="305" width="80" height="80" as="geometry" />
        </mxCell>
        <mxCell id="UPcJB4WVgScmo6bHeXyi-43" value="" style="endArrow=none;html=1;rounded=0;fontSize=12;startSize=8;endSize=8;curved=1;exitX=0;exitY=0.5;exitDx=0;exitDy=0;entryX=1;entryY=0.5;entryDx=0;entryDy=0;" edge="1" parent="1" source="UPcJB4WVgScmo6bHeXyi-28" target="UPcJB4WVgScmo6bHeXyi-39">
          <mxGeometry width="50" height="50" relative="1" as="geometry">
            <mxPoint x="460" y="370" as="sourcePoint" />
            <mxPoint x="510" y="310" as="targetPoint" />
          </mxGeometry>
        </mxCell>
      </root>
    </mxGraphModel>
  </diagram>
</mxfile>
